# xmcd CD database file
#
# Track frame offsets:
#	150
#	18220
#	38425
#	55380
#
# Disc length: 989 seconds
#
# Revision: 1
# Processed by: cddbd v1.5PL3 Copyright (c) Steve Scherf et al.
# Submitted via: CDex 1.51
#
DISCID=2403db04
DTITLE=Freak Nasty - Da' Dip
DYEAR=1997
DGENRE=Hip Hop
TTITLE0=Da' Dip
TTITLE1=Down Low (remix)
TTITLE2=Bump That Rump
TTITLE3=Da' Dip (instrumental)
EXTD=YEAR: 1997
EXTT0=
EXTT1=
EXTT2=
EXTT3=
PLAYORDER=
